
<svg xmlns="http://www.w3.org/2000/svg" xmlns:xlink="http://www.w3.org/1999/xlink" preserveAspectRatio="xMidYMid meet" version="1.0" viewBox="0.0 0.0 123.0 126.0" zoomAndPan="magnify" style="fill: rgb(0, 0, 0);" original_string_length="9099"><linearGradient xmlns:xlink="http://www.w3.org/1999/xlink" gradientUnits="userSpaceOnUse" id="__id117_svhmoxl447" x1="61.492" x2="61.492" xlink:actuate="onLoad" xlink:show="other" xlink:type="simple" y1="0" y2="126"><stop offset="0" style="stop-color: rgb(241, 227, 227);"/><stop offset="1" style="stop-color: rgb(166, 166, 166);"/></linearGradient><path d="M63,105.913c0.117,0,0.233-0.021,0.345-0.062c13.573-4.984,22.792-11.328,29.011-19.963 c3.057-4.245,4.672-9.269,4.672-14.53V33.67c0-2.583-1.362-4.996-3.555-6.297c-8.378-4.972-17.554-8.554-27.272-10.646 c-2.124-0.458-4.276-0.457-6.4,0c-9.72,2.093-18.895,5.675-27.271,10.646c-2.194,1.301-3.557,3.714-3.557,6.297v37.688 c0,5.262,1.616,10.286,4.673,14.53c6.219,8.635,15.437,14.979,29.01,19.963C62.767,105.892,62.883,105.913,63,105.913z M35.269,84.719c-2.811-3.901-4.296-8.521-4.296-13.361V33.67c0-1.881,0.987-3.635,2.577-4.578 c8.189-4.861,17.163-8.364,26.671-10.411c0.923-0.198,1.852-0.297,2.78-0.297c0.928,0,1.856,0.099,2.778,0.297 c9.507,2.047,18.48,5.55,26.672,10.411c1.589,0.943,2.576,2.697,2.576,4.578v37.688c0,4.839-1.485,9.459-4.295,13.361 C84.81,92.942,75.992,99.026,63,103.847C50.008,99.026,41.19,92.942,35.269,84.719z M70.404,80.351 c0.19-0.223,0.273-0.518,0.227-0.807l-3.484-21.715c2.635-1.487,4.299-4.294,4.299-7.351c0-4.656-3.788-8.444-8.445-8.444 c-4.656,0-8.444,3.788-8.444,8.444c0,3.057,1.664,5.864,4.298,7.351L55.37,79.543c-0.047,0.289,0.036,0.584,0.227,0.807 c0.189,0.223,0.468,0.351,0.761,0.351h13.286C69.937,80.702,70.215,80.573,70.404,80.351z M57.53,78.702l3.413-21.277 c0.071-0.446-0.165-0.885-0.577-1.07c-2.315-1.04-3.811-3.347-3.811-5.877c0-3.553,2.891-6.444,6.444-6.444s6.445,2.891,6.445,6.444 c0,2.531-1.496,4.837-3.811,5.877c-0.413,0.185-0.649,0.624-0.578,1.07l3.414,21.277H57.53z M34.564,106.491 c6.892,4.251,14.469,6.85,22.519,7.724c0.55,0.06,0.946,0.553,0.887,1.102c-0.056,0.512-0.489,0.892-0.993,0.892 c-0.036,0-0.072-0.002-0.108-0.006c-8.35-0.906-16.206-3.601-23.354-8.01c-0.47-0.29-0.615-0.906-0.326-1.376 C33.479,106.347,34.092,106.2,34.564,106.491z M27.191,12.636c-0.325-0.447-0.226-1.072,0.221-1.397 c6.102-4.434,12.878-7.65,20.143-9.56c0.533-0.14,1.081,0.179,1.221,0.713c0.141,0.534-0.179,1.081-0.713,1.222 c-7.022,1.846-13.575,4.956-19.475,9.243c-0.178,0.129-0.383,0.191-0.587,0.191C27.691,13.048,27.387,12.905,27.191,12.636z M4.749,48.638c-0.07,0-0.141-0.007-0.212-0.022c-0.54-0.117-0.883-0.649-0.767-1.189c1.168-5.405,3.078-10.628,5.679-15.523 c0.259-0.487,0.864-0.672,1.352-0.414c0.488,0.259,0.674,0.865,0.414,1.353c-2.514,4.732-4.36,9.782-5.489,15.007 C5.624,48.318,5.21,48.638,4.749,48.638z M4.86,52.924c-0.305,2.43-0.459,4.909-0.459,7.368c0,0.552-0.447,1-1,1s-1-0.448-1-1 c0-2.542,0.16-5.104,0.475-7.617c0.068-0.547,0.566-0.937,1.116-0.868C4.541,51.876,4.929,52.375,4.86,52.924z M42.613,108.59 c-0.509-0.215-0.746-0.801-0.531-1.31c0.215-0.509,0.799-0.747,1.311-0.532c3.817,1.613,7.833,2.749,11.935,3.375 c0.547,0.083,0.922,0.594,0.838,1.14c-0.075,0.495-0.501,0.849-0.987,0.849c-0.05,0-0.101-0.003-0.151-0.011 C50.76,111.449,46.584,110.269,42.613,108.59z M2.833,94.581c1.563,0,2.833-1.271,2.833-2.833s-1.271-2.833-2.833-2.833 S0,90.186,0,91.748S1.271,94.581,2.833,94.581z M2.833,90.915c0.459,0,0.833,0.374,0.833,0.833c0,0.459-0.374,0.833-0.833,0.833 S2,92.207,2,91.748C2,91.289,2.374,90.915,2.833,90.915z M110.972,7.883c1.563,0,2.833-1.271,2.833-2.833s-1.271-2.833-2.833-2.833 s-2.833,1.271-2.833,2.833S109.409,7.883,110.972,7.883z M110.972,4.217c0.459,0,0.833,0.374,0.833,0.833 c0,0.459-0.374,0.833-0.833,0.833s-0.833-0.374-0.833-0.833C110.139,4.591,110.513,4.217,110.972,4.217z M9.118,119.89 c0,1.562,1.271,2.833,2.832,2.833c1.563,0,2.833-1.271,2.833-2.833s-1.271-2.833-2.833-2.833 C10.389,117.057,9.118,118.328,9.118,119.89z M12.783,119.89c0,0.459-0.374,0.833-0.833,0.833s-0.832-0.374-0.832-0.833 c0-0.459,0.373-0.833,0.832-0.833S12.783,119.431,12.783,119.89z M1,18.826h1.5v12.406c0,0.552,0.447,1,1,1s1-0.448,1-1V18.826h8.07 v4.656c0,0.552,0.447,1,1,1s1-0.448,1-1v-4.656h5.571l8.029,7.508c-2.649,2.716-4.986,5.737-6.948,9.009l-5.319-3.785 c-0.013-0.01-0.03-0.01-0.043-0.019c-0.012-0.008-0.019-0.021-0.032-0.029c-0.045-0.026-0.094-0.03-0.14-0.048 c-0.065-0.026-0.127-0.055-0.195-0.067c-0.063-0.011-0.124-0.006-0.188-0.005c-0.065,0.001-0.128-0.002-0.191,0.012 c-0.064,0.014-0.12,0.042-0.18,0.068c-0.058,0.025-0.115,0.045-0.168,0.08c-0.058,0.039-0.104,0.093-0.153,0.144 c-0.034,0.035-0.076,0.058-0.105,0.099c-0.008,0.012-0.009,0.025-0.017,0.037c-0.009,0.014-0.024,0.022-0.032,0.036 c-5.038,8.586-7.701,18.416-7.701,28.424c0,13.667,4.961,26.841,13.97,37.098c0.197,0.225,0.474,0.34,0.751,0.34 c0.234,0,0.47-0.082,0.66-0.249c0.415-0.365,0.456-0.997,0.091-1.411c-1.415-1.611-2.715-3.303-3.919-5.053l3.985-3.946 c3.946,5.995,9.239,11.117,15.613,14.94H3.833v-5.282c0-0.552-0.447-1-1-1s-1,0.448-1,1v6.282c0,0.552,0.447,1,1,1h8.117v10.712 c0,0.552,0.447,1,1,1s1-0.448,1-1v-10.712h5.222v4.856c0,0.552,0.447,1,1,1s1-0.448,1-1v-4.856h21.635 c0.046,0,0.085-0.02,0.129-0.026c0.077-0.01,0.154-0.018,0.226-0.046c0.057-0.022,0.104-0.057,0.155-0.088 c0.058-0.035,0.116-0.065,0.166-0.112c0.052-0.048,0.088-0.108,0.129-0.167c0.028-0.041,0.067-0.07,0.09-0.116 c0.005-0.009,0.003-0.02,0.008-0.029c0.028-0.06,0.036-0.126,0.051-0.191c0.015-0.066,0.038-0.13,0.04-0.196 c0-0.01,0.006-0.019,0.006-0.029c0-0.05-0.021-0.093-0.028-0.141c-0.011-0.072-0.017-0.143-0.043-0.211 c-0.023-0.061-0.06-0.111-0.094-0.166c-0.034-0.055-0.062-0.11-0.106-0.158c-0.049-0.053-0.109-0.09-0.169-0.131 c-0.04-0.028-0.069-0.067-0.115-0.089c-7.909-3.931-14.334-9.84-18.811-16.965c-0.047-0.142-0.117-0.278-0.229-0.392 c-0.008-0.008-0.018-0.01-0.026-0.017c-4.416-7.193-6.863-15.596-6.863-24.449c0-25.738,20.939-46.677,46.677-46.677 c25.738,0,46.678,20.939,46.678,46.677S88.738,106.969,63,106.969c-0.553,0-1,0.448-1,1V125c0,0.552,0.447,1,1,1s1-0.448,1-1v-3.356 h9.003c0.553,0,1-0.448,1-1s-0.447-1-1-1H64v-3.135c14.374-0.249,27.843-5.851,38.154-15.865l1.531,1.8 c-5.212,5.035-11.216,9.024-17.875,11.842c-0.509,0.215-0.746,0.802-0.531,1.311c0.161,0.381,0.531,0.611,0.921,0.611 c0.13,0,0.263-0.026,0.39-0.08c6.849-2.897,13.024-6.993,18.394-12.158l3.715,4.367v5.692c0,0.552,0.447,1,1,1s1-0.448,1-1v-5.06 h2.714v8.961c0,0.552,0.447,1,1,1s1-0.448,1-1v-8.961h6.097c0.553,0,1-0.448,1-1s-0.447-1-1-1H110.16L98.627,93.412 c0.913-0.981,1.782-2.002,2.613-3.056l8.704,9.378c0.189,0.204,0.455,0.32,0.733,0.32h9.204c0.553,0,1-0.448,1-1s-0.447-1-1-1 h-3.712v-6.437c0-0.552-0.447-1-1-1s-1,0.448-1,1v6.437h-3.056l-6.049-6.518c2.087-2.807,3.907-5.813,5.39-8.967 c0.234-0.5,0.02-1.095-0.479-1.33c-0.5-0.236-1.095-0.02-1.331,0.479c-1.373,2.921-3.051,5.709-4.966,8.324l-1.213-1.307 c3.726-5.155,6.465-11.064,7.946-17.453l6.101,2.273c0.023,0.009,0.046,0.006,0.07,0.013c0.021,0.006,0.036,0.021,0.057,0.026 c0.073,0.017,0.147,0.024,0.219,0.024c0.001,0,0.002,0.001,0.003,0.001c0,0,0,0,0.001,0c0,0,0.001,0,0.001,0 c0.006,0,0.011-0.003,0.016-0.003c0.101-0.002,0.2-0.019,0.294-0.05c0.039-0.013,0.073-0.035,0.109-0.053 c0.058-0.027,0.115-0.054,0.167-0.092c0.037-0.027,0.067-0.061,0.101-0.094c0.043-0.041,0.084-0.082,0.119-0.131 c0.029-0.04,0.049-0.083,0.072-0.128c0.018-0.035,0.043-0.064,0.057-0.101c0.007-0.019,0.003-0.038,0.009-0.057 c0.008-0.025,0.023-0.044,0.029-0.07c0.934-4.093,1.406-8.316,1.406-12.55c0-18.283-8.9-34.828-22.783-45.167l2.705-3.108h8.333 v8.615c0,0.552,0.447,1,1,1s1-0.448,1-1v-8.615h4.487v4.703c0,0.552,0.447,1,1,1s1-0.448,1-1v-4.703h6c0.553,0,1-0.448,1-1 s-0.447-1-1-1H99.709V6.05h6.297c0.553,0,1-0.448,1-1s-0.447-1-1-1h-7.297c-0.553,0-1,0.448-1,1v5.592l-2.886,3.316 c-6.828-4.716-14.762-7.966-23.378-9.265V1c0-0.552-0.447-1-1-1s-1,0.448-1,1v11.054c-2.111-0.281-4.259-0.44-6.445-0.44 c-2.186,0-4.334,0.159-6.444,0.44V5.548c0-0.023-0.012-0.043-0.013-0.066c-0.001-0.023,0.008-0.044,0.005-0.068 c-0.006-0.047-0.032-0.085-0.044-0.13c-0.017-0.062-0.033-0.122-0.061-0.179c-0.032-0.065-0.073-0.119-0.118-0.174 c-0.034-0.043-0.066-0.085-0.107-0.121c-0.055-0.049-0.116-0.086-0.181-0.122c-0.048-0.027-0.094-0.054-0.146-0.073 c-0.067-0.024-0.136-0.033-0.209-0.042c-0.043-0.006-0.081-0.025-0.125-0.025c-0.023,0-0.042,0.011-0.064,0.013 c-0.024,0.001-0.046-0.008-0.07-0.005C43.533,6.158,32.71,11.408,24.046,19.74l-2.828-2.644c-0.185-0.173-0.429-0.27-0.683-0.27 H7.563V8.772c0-0.552-0.447-1-1-1s-1,0.448-1,1v8.054H1c-0.553,0-1,0.448-1,1S0.447,18.826,1,18.826z M64,114.509v-5.565 c12.938-0.263,24.653-5.587,33.232-14.084l3.623,4.259C90.907,108.825,77.893,114.259,64,114.509z M71.445,6.718 c26.187,4.097,45.797,26.918,45.797,53.573c0,3.699-0.394,7.385-1.133,10.981l-5.282-1.968c0.55-2.923,0.85-5.933,0.85-9.013 c0-23.959-17.405-43.917-40.232-47.929V6.718z M21.209,85.334l-4.021,3.981c-5.47-8.63-8.43-18.677-8.43-29.024 c0-9.286,2.382-18.408,6.888-26.46l4.573,3.254c-3.759,6.902-5.897,14.809-5.897,23.206C14.323,69.339,16.777,77.934,21.209,85.334z M54.556,6.715v5.648c-9.568,1.681-18.178,6.162-24.957,12.57l-4.089-3.824C33.574,13.381,43.573,8.427,54.556,6.715z" style="fill: url(&quot;#__id117_svhmoxl447&quot;);"/></svg>